# xmcd
#
# Track frame offsets: 
#        150
#        14855
#        29122
#        42267
#        55920
#        68715
#        78772
#        90082
#        101780
#        113267
#        124342
#        136735
#        149617
#        160110
#        171877
#        185255
#        199347
#        213440
#        225665
#        239655
#        254120
#
# Disc length: 3630 seconds
#
# Revision: 3
# Processed by: cddbd v1.5.2PL0 Copyright (c) Steve Scherf et al.
# Submitted via: ExactAudioCopyFreeDBPlugin 1.0
#
DISCID=2e0e2c15
DTITLE=Ann Peebles - The Best of Ann Peebles:  The Hi Records Years
DYEAR=1996
DGENRE=Soul
TTITLE0=Walk Away
TTITLE1=Give Me Some Credit
TTITLE2=Part Time Love
TTITLE3=I Pity the Fool
TTITLE4=I'm Gonna Tear Your Playhouse Down
TTITLE5=I'll Get Along
TTITLE6=Slipped, Tripped and Fell in Love
TTITLE7=I Can't Stand the Rain
TTITLE8=I Feel Like Breaking Up Somebody's Home
TTITLE9=Somebody's on Your Case
TTITLE10=(You Keep Me) Hangin' On
TTITLE11=A Love Vibration
TTITLE12=99 Pounds
TTITLE13=Do I Need You
TTITLE14=Come to Mama
TTITLE15=Doctor Love Power
TTITLE16=Beware
TTITLE17=Fill This World with Love
TTITLE18=Old Man with Young Ideas
TTITLE19=If This is Heaven
TTITLE20=Didn't Take Your Man
EXTD=The above categories stink - the above is R&B vocals.
EXTT0=
EXTT1=
EXTT2=
EXTT3=
EXTT4=
EXTT5=
EXTT6=
EXTT7=
EXTT8=
EXTT9=
EXTT10=
EXTT11=
EXTT12=
EXTT13=
EXTT14=
EXTT15=
EXTT16=
EXTT17=
EXTT18=
EXTT19=
EXTT20=
PLAYORDER=
